# xmcd
#
# Track frame offsets:
#  150
#  23650
#  36892
#  60240
#  76470
#  99594
#  113059
#  129896
#  148846
#  169138
#  178390
#  199280
#  217971
#  232393
#  246916
#
# Disc length: 3476 seconds
#
# Revision: 0
# Processed by: cddbd v1.5PL3 Copyright (c) Steve Scherf et al.
# Submitted via: AltoMP3_Maker 3.0
#
DISCID=d60d920f
DTITLE=William Harper - The banjo of death sleeping
DYEAR=1900
DGENRE=
TTITLE0=The banjo of death sleeping
TTITLE1=Chickalaleeoh
TTITLE2=River weeds
TTITLE3=Owl walk
TTITLE4=The banjo of death
TTITLE5=Sleepers wake
TTITLE6=Tecmessa
TTITLE7=Prairie's boy
TTITLE8=Wings of a dove
TTITLE9=Bad girls
TTITLE10=Chickalaleeoh
TTITLE11=The galowing sea
TTITLE12=Building the scaffold
TTITLE13=Hymnosis
TTITLE14=The sea
EXTD=
EXTT0=
EXTT1=
EXTT2=
EXTT3=
EXTT4=
EXTT5=
EXTT6=
EXTT7=
EXTT8=
EXTT9=
EXTT10=
EXTT11=
EXTT12=
EXTT13=
EXTT14=
PLAYORDER=
